<svg width="64" height="46" viewBox="0 0 64 46" fill="none" xmlns="http://www.w3.org/2000/svg">
<mask id="path-1-outside-1_950_31" maskUnits="userSpaceOnUse" x="0" y="0" width="64" height="46" fill="black">
<rect fill="white" width="64" height="46"/>
<path fill-rule="evenodd" clip-rule="evenodd" d="M44.3507 6.5145C44.0319 7.86107 43.8725 9.52824 43.8725 11.516C43.8725 13.5038 44.0319 15.171 44.3507 16.5176C44.6695 17.8427 45.1902 18.9114 45.9128 19.7237C46.6566 20.5359 47.6449 21.1237 48.8775 21.487C50.1102 21.829 51.6298 22 53.4362 22C55.2427 22 56.7623 21.829 57.995 21.487C59.2276 21.1237 60.2053 20.5359 60.9278 19.7237C61.6717 18.9114 62.203 17.8427 62.5218 16.5176C62.8406 15.171 63 13.5038 63 11.516C63 9.52824 62.8406 7.86107 62.5218 6.5145C62.203 5.16794 61.6717 4.08855 60.9278 3.27634C60.2053 2.46412 59.2276 1.88702 57.995 1.54504C56.7623 1.18168 55.2427 1 53.4362 1C51.6298 1 50.1102 1.18168 48.8775 1.54504C47.6449 1.88702 46.6566 2.46412 45.9128 3.27634C45.1902 4.08855 44.6695 5.16794 44.3507 6.5145ZM53.6275 16.5176H50.7265V8.18168C50.7265 7.54046 50.9072 7.10229 51.2685 6.86718C51.6298 6.61069 52.278 6.48244 53.2131 6.48244H56.146V14.8183C56.146 15.4595 55.9653 15.9084 55.604 16.1649C55.2427 16.4 54.5839 16.5176 53.6275 16.5176ZM7.37583 16.6779V21.5191H1V1.48092H10.0856C11.892 1.48092 13.3585 1.73741 14.4849 2.25038C15.6113 2.74199 16.4295 3.53283 16.9396 4.6229C17.4709 5.71298 17.7366 7.13435 17.7366 8.88702C17.7366 11.5374 17.1521 13.5038 15.9832 14.7863C14.8143 16.0473 13.0078 16.6779 10.5638 16.6779H7.37583ZM7.37583 12.029H9.79865C10.2662 12.029 10.585 11.9328 10.755 11.7405C10.9463 11.5481 11.0419 11.1954 11.0419 10.6824V8.11756C11.0419 7.60458 10.9463 7.25191 10.755 7.05954C10.585 6.86718 10.2662 6.77099 9.79865 6.77099H7.37583V12.029ZM28.5705 15.716V21.5191H22.1947V1.48092H31.4396C33.2461 1.48092 34.7126 1.73741 35.8389 2.25038C36.9653 2.74199 37.7836 3.53283 38.2936 4.6229C38.825 5.71298 39.0906 7.13435 39.0906 8.88702C39.0906 11.2168 38.5062 12.9374 37.3373 14.0489C37.1252 14.2542 36.8907 14.4406 36.6336 14.608L39.8876 21.5191H32.9698L30.256 15.716H28.5705ZM28.5705 11.0672H31.1527C31.6203 11.0672 31.9391 10.971 32.1091 10.7786C32.3004 10.5863 32.396 10.2336 32.396 9.72061V8.11756C32.396 7.60458 32.3004 7.25191 32.1091 7.05954C31.9391 6.86718 31.6203 6.77099 31.1527 6.77099H28.5705V11.0672ZM1 24H7.27771L8.94131 38.5488H9.2238L11.3896 24H13.5868H16.0037H18.2009L20.3667 38.5488H20.6492L22.3128 24H28.5905L25.9853 45H16.6315L14.7953 32.3351L12.959 45H3.60525L1 24ZM36.8994 36.936V39.456H44.2757V45H30.6217V24H44.4327L43.648 29.544H36.8994V32.064H43.1771V36.936H36.8994ZM55.5295 24H46.6152V45H56.6281C58.6788 45 60.2483 44.496 61.3364 43.488C62.4455 42.4576 63 40.9904 63 39.0864C63 37.9888 62.6966 37.0032 62.0897 36.1296C61.4829 35.2336 60.7296 34.6736 59.8298 34.4496V34.248C60.4994 33.8448 61.033 33.2064 61.4306 32.3328C61.8282 31.4592 62.027 30.5296 62.027 29.544C62.027 27.5952 61.5143 26.184 60.4889 25.3104C59.4845 24.4368 57.8313 24 55.5295 24ZM52.8929 40.128H55.1529C55.676 40.128 56.0317 40.0048 56.2201 39.7584C56.4293 39.4896 56.534 39.0416 56.534 38.4144C56.534 37.7648 56.4398 37.3168 56.2515 37.0704C56.0631 36.824 55.7074 36.7008 55.1842 36.7008H52.8929V40.128ZM52.8929 31.9968H54.4309C54.9541 31.9968 55.2993 31.896 55.4667 31.6944C55.6551 31.4704 55.7492 31.0448 55.7492 30.4176C55.7492 29.7904 55.6655 29.376 55.4981 29.1744C55.3307 28.9728 54.975 28.872 54.4309 28.872H52.8929V31.9968Z"/>
</mask>
<path fill-rule="evenodd" clip-rule="evenodd" d="M44.3507 6.5145C44.0319 7.86107 43.8725 9.52824 43.8725 11.516C43.8725 13.5038 44.0319 15.171 44.3507 16.5176C44.6695 17.8427 45.1902 18.9114 45.9128 19.7237C46.6566 20.5359 47.6449 21.1237 48.8775 21.487C50.1102 21.829 51.6298 22 53.4362 22C55.2427 22 56.7623 21.829 57.995 21.487C59.2276 21.1237 60.2053 20.5359 60.9278 19.7237C61.6717 18.9114 62.203 17.8427 62.5218 16.5176C62.8406 15.171 63 13.5038 63 11.516C63 9.52824 62.8406 7.86107 62.5218 6.5145C62.203 5.16794 61.6717 4.08855 60.9278 3.27634C60.2053 2.46412 59.2276 1.88702 57.995 1.54504C56.7623 1.18168 55.2427 1 53.4362 1C51.6298 1 50.1102 1.18168 48.8775 1.54504C47.6449 1.88702 46.6566 2.46412 45.9128 3.27634C45.1902 4.08855 44.6695 5.16794 44.3507 6.5145ZM53.6275 16.5176H50.7265V8.18168C50.7265 7.54046 50.9072 7.10229 51.2685 6.86718C51.6298 6.61069 52.278 6.48244 53.2131 6.48244H56.146V14.8183C56.146 15.4595 55.9653 15.9084 55.604 16.1649C55.2427 16.4 54.5839 16.5176 53.6275 16.5176ZM7.37583 16.6779V21.5191H1V1.48092H10.0856C11.892 1.48092 13.3585 1.73741 14.4849 2.25038C15.6113 2.74199 16.4295 3.53283 16.9396 4.6229C17.4709 5.71298 17.7366 7.13435 17.7366 8.88702C17.7366 11.5374 17.1521 13.5038 15.9832 14.7863C14.8143 16.0473 13.0078 16.6779 10.5638 16.6779H7.37583ZM7.37583 12.029H9.79865C10.2662 12.029 10.585 11.9328 10.755 11.7405C10.9463 11.5481 11.0419 11.1954 11.0419 10.6824V8.11756C11.0419 7.60458 10.9463 7.25191 10.755 7.05954C10.585 6.86718 10.2662 6.77099 9.79865 6.77099H7.37583V12.029ZM28.5705 15.716V21.5191H22.1947V1.48092H31.4396C33.2461 1.48092 34.7126 1.73741 35.8389 2.25038C36.9653 2.74199 37.7836 3.53283 38.2936 4.6229C38.825 5.71298 39.0906 7.13435 39.0906 8.88702C39.0906 11.2168 38.5062 12.9374 37.3373 14.0489C37.1252 14.2542 36.8907 14.4406 36.6336 14.608L39.8876 21.5191H32.9698L30.256 15.716H28.5705ZM28.5705 11.0672H31.1527C31.6203 11.0672 31.9391 10.971 32.1091 10.7786C32.3004 10.5863 32.396 10.2336 32.396 9.72061V8.11756C32.396 7.60458 32.3004 7.25191 32.1091 7.05954C31.9391 6.86718 31.6203 6.77099 31.1527 6.77099H28.5705V11.0672ZM1 24H7.27771L8.94131 38.5488H9.2238L11.3896 24H13.5868H16.0037H18.2009L20.3667 38.5488H20.6492L22.3128 24H28.5905L25.9853 45H16.6315L14.7953 32.3351L12.959 45H3.60525L1 24ZM36.8994 36.936V39.456H44.2757V45H30.6217V24H44.4327L43.648 29.544H36.8994V32.064H43.1771V36.936H36.8994ZM55.5295 24H46.6152V45H56.6281C58.6788 45 60.2483 44.496 61.3364 43.488C62.4455 42.4576 63 40.9904 63 39.0864C63 37.9888 62.6966 37.0032 62.0897 36.1296C61.4829 35.2336 60.7296 34.6736 59.8298 34.4496V34.248C60.4994 33.8448 61.033 33.2064 61.4306 32.3328C61.8282 31.4592 62.027 30.5296 62.027 29.544C62.027 27.5952 61.5143 26.184 60.4889 25.3104C59.4845 24.4368 57.8313 24 55.5295 24ZM52.8929 40.128H55.1529C55.676 40.128 56.0317 40.0048 56.2201 39.7584C56.4293 39.4896 56.534 39.0416 56.534 38.4144C56.534 37.7648 56.4398 37.3168 56.2515 37.0704C56.0631 36.824 55.7074 36.7008 55.1842 36.7008H52.8929V40.128ZM52.8929 31.9968H54.4309C54.9541 31.9968 55.2993 31.896 55.4667 31.6944C55.6551 31.4704 55.7492 31.0448 55.7492 30.4176C55.7492 29.7904 55.6655 29.376 55.4981 29.1744C55.3307 28.9728 54.975 28.872 54.4309 28.872H52.8929V31.9968Z" fill="url(#paint0_linear_950_31)"/>
<path d="M44.3507 6.5145L44.1561 6.46843V6.46843L44.3507 6.5145ZM44.3507 16.5176L44.1561 16.5636L44.1562 16.5643L44.3507 16.5176ZM45.9128 19.7237L45.7633 19.8566L45.7653 19.8587L45.9128 19.7237ZM48.8775 21.487L48.821 21.6789L48.8241 21.6797L48.8775 21.487ZM57.995 21.487L58.0484 21.6798L58.0515 21.6789L57.995 21.487ZM60.9278 19.7237L60.7803 19.5886L60.7784 19.5907L60.9278 19.7237ZM62.5218 16.5176L62.7163 16.5643L62.7164 16.5636L62.5218 16.5176ZM62.5218 6.5145L62.3272 6.56058V6.56058L62.5218 6.5145ZM60.9278 3.27634L60.7784 3.40929L60.7804 3.41141L60.9278 3.27634ZM57.995 1.54504L57.9384 1.7369L57.9415 1.73776L57.995 1.54504ZM48.8775 1.54504L48.931 1.73778L48.9341 1.73688L48.8775 1.54504ZM45.9128 3.27634L45.7653 3.14125L45.7633 3.1434L45.9128 3.27634ZM50.7265 16.5176H50.5265V16.7176H50.7265V16.5176ZM51.2685 6.86718L51.3776 7.03494L51.3842 7.03026L51.2685 6.86718ZM56.146 6.48244H56.346V6.28244H56.146V6.48244ZM55.604 16.1649L55.7132 16.3327L55.7198 16.328L55.604 16.1649ZM7.37583 21.5191V21.7191H7.57583V21.5191H7.37583ZM7.37583 16.6779V16.4779H7.17583V16.6779H7.37583ZM1 21.5191H0.8V21.7191H1V21.5191ZM1 1.48092V1.28092H0.8V1.48092H1ZM14.4849 2.25038L14.402 2.43242L14.4049 2.43369L14.4849 2.25038ZM16.9396 4.6229L16.7584 4.70768L16.7598 4.71053L16.9396 4.6229ZM15.9832 14.7863L16.1299 14.9222L16.131 14.921L15.9832 14.7863ZM7.37583 12.029H7.17583V12.229H7.37583V12.029ZM10.755 11.7405L10.613 11.5992L10.6052 11.608L10.755 11.7405ZM10.755 7.05954L10.6049 7.19222L10.6132 7.20056L10.755 7.05954ZM7.37583 6.77099V6.57099H7.17583V6.77099H7.37583ZM28.5705 21.5191V21.7191H28.7705V21.5191H28.5705ZM28.5705 15.716V15.516H28.3705V15.716H28.5705ZM22.1947 21.5191H21.9947V21.7191H22.1947V21.5191ZM22.1947 1.48092V1.28092H21.9947V1.48092H22.1947ZM35.8389 2.25038L35.756 2.43242L35.7589 2.43369L35.8389 2.25038ZM38.2936 4.6229L38.1125 4.70768L38.1139 4.71053L38.2936 4.6229ZM37.3373 14.0489L37.1994 13.9039L37.1981 13.9052L37.3373 14.0489ZM36.6336 14.608L36.5245 14.4404L36.3785 14.5356L36.4527 14.6932L36.6336 14.608ZM39.8876 21.5191V21.7191H40.2028L40.0685 21.4339L39.8876 21.5191ZM32.9698 21.5191L32.7887 21.6038L32.8426 21.7191H32.9698V21.5191ZM30.256 15.716L30.4372 15.6313L30.3833 15.516H30.256V15.716ZM28.5705 11.0672H28.3705V11.2672H28.5705V11.0672ZM32.1091 10.7786L31.967 10.6374L31.9592 10.6462L32.1091 10.7786ZM32.1091 7.05954L31.959 7.19222L31.9673 7.20056L32.1091 7.05954ZM28.5705 6.77099V6.57099H28.3705V6.77099H28.5705ZM7.27771 24L7.47642 23.9773L7.45615 23.8H7.27771V24ZM1 24V23.8H0.773655L0.801522 24.0246L1 24ZM8.94131 38.5488L8.7426 38.5715L8.76287 38.7488H8.94131V38.5488ZM9.2238 38.5488V38.7488H9.39623L9.42162 38.5783L9.2238 38.5488ZM11.3896 24V23.8H11.2172L11.1918 23.9706L11.3896 24ZM18.2009 24L18.3987 23.9706L18.3734 23.8H18.2009V24ZM20.3667 38.5488L20.1689 38.5783L20.1943 38.7488H20.3667V38.5488ZM20.6492 38.5488V38.7488H20.8277L20.8479 38.5715L20.6492 38.5488ZM22.3128 24V23.8H22.1344L22.1141 23.9773L22.3128 24ZM28.5905 24L28.789 24.0246L28.8169 23.8H28.5905V24ZM25.9853 45V45.2H26.162L26.1838 45.0246L25.9853 45ZM16.6315 45L16.4336 45.0287L16.4584 45.2H16.6315V45ZM14.7953 32.3351L14.9932 32.3064H14.5973L14.7953 32.3351ZM12.959 45V45.2H13.1321L13.157 45.0287L12.959 45ZM3.60525 45L3.40677 45.0246L3.42853 45.2H3.60525V45ZM36.8994 39.456H36.6994V39.656H36.8994V39.456ZM36.8994 36.936V36.736H36.6994V36.936H36.8994ZM44.2757 39.456H44.4757V39.256H44.2757V39.456ZM44.2757 45V45.2H44.4757V45H44.2757ZM30.6217 45H30.4217V45.2H30.6217V45ZM30.6217 24V23.8H30.4217V24H30.6217ZM44.4327 24L44.6307 24.028L44.663 23.8H44.4327V24ZM43.648 29.544V29.744H43.8217L43.846 29.572L43.648 29.544ZM36.8994 29.544V29.344H36.6994V29.544H36.8994ZM36.8994 32.064H36.6994V32.264H36.8994V32.064ZM43.1771 32.064H43.3771V31.864H43.1771V32.064ZM43.1771 36.936V37.136H43.3771V36.936H43.1771ZM46.6152 24V23.8H46.4152V24H46.6152ZM46.6152 45H46.4152V45.2H46.6152V45ZM61.3364 43.488L61.4723 43.6347L61.4725 43.6345L61.3364 43.488ZM62.0897 36.1296L61.9241 36.2418L61.9255 36.2437L62.0897 36.1296ZM59.8298 34.4496H59.6297V34.6059L59.7814 34.6437L59.8298 34.4496ZM59.8298 34.248L59.7266 34.0767L59.6297 34.135V34.248H59.8298ZM61.4306 32.3328L61.6126 32.4156L61.4306 32.3328ZM60.4889 25.3104L60.3577 25.4613L60.3592 25.4626L60.4889 25.3104ZM52.8929 40.128H52.6929V40.328H52.8929V40.128ZM56.2201 39.7584L56.0622 39.6355L56.0612 39.6369L56.2201 39.7584ZM56.2515 37.0704L56.0926 37.1919L56.2515 37.0704ZM52.8929 36.7008V36.5008H52.6929V36.7008H52.8929ZM52.8929 31.9968H52.6929V32.1968H52.8929V31.9968ZM55.4667 31.6944L55.3137 31.5657L55.3129 31.5666L55.4667 31.6944ZM55.4981 29.1744L55.3443 29.3022L55.3443 29.3022L55.4981 29.1744ZM52.8929 28.872V28.672H52.6929V28.872H52.8929ZM44.0725 11.516C44.0725 9.53764 44.2313 7.88707 44.5453 6.56058L44.1561 6.46843C43.8325 7.83506 43.6725 9.51885 43.6725 11.516H44.0725ZM44.5453 16.4715C44.2313 15.145 44.0725 13.4944 44.0725 11.516H43.6725C43.6725 13.5132 43.8325 15.197 44.1561 16.5636L44.5453 16.4715ZM46.0622 19.5907C45.3663 18.8086 44.8582 17.7719 44.5451 16.4708L44.1562 16.5643C44.4808 17.9136 45.014 19.0143 45.7633 19.8566L46.0622 19.5907ZM48.9341 21.2952C47.7304 20.9404 46.7757 20.3698 46.0603 19.5886L45.7653 19.8587C46.5375 20.702 47.5593 21.307 48.821 21.6789L48.9341 21.2952ZM53.4362 21.8C51.641 21.8 50.1407 21.6299 48.931 21.2943L48.8241 21.6797C50.0796 22.0281 51.6185 22.2 53.4362 22.2V21.8ZM57.9415 21.2943C56.7318 21.6299 55.2315 21.8 53.4362 21.8V22.2C55.254 22.2 56.7928 22.0281 58.0484 21.6797L57.9415 21.2943ZM60.7784 19.5907C60.0849 20.3703 59.1418 20.9404 57.9384 21.2952L58.0515 21.6789C59.3134 21.3069 60.3256 20.7015 61.0773 19.8566L60.7784 19.5907ZM62.3274 16.4708C62.0146 17.7708 61.4965 18.8066 60.7804 19.5886L61.0753 19.8587C61.8469 19.0163 62.3914 17.9147 62.7163 16.5643L62.3274 16.4708ZM62.8 11.516C62.8 13.4944 62.6412 15.145 62.3272 16.4715L62.7164 16.5636C63.04 15.197 63.2 13.5132 63.2 11.516H62.8ZM62.3272 6.56058C62.6412 7.88707 62.8 9.53764 62.8 11.516H63.2C63.2 9.51885 63.04 7.83506 62.7164 6.46843L62.3272 6.56058ZM60.7804 3.41141C61.496 4.1928 62.0143 5.23884 62.3272 6.56058L62.7164 6.46843C62.3918 5.09704 61.8474 3.9843 61.0753 3.14126L60.7804 3.41141ZM57.9415 1.73776C59.1438 2.07131 60.0856 2.63057 60.7784 3.40927L61.0773 3.1434C60.3249 2.29768 59.3115 1.70274 58.0484 1.35232L57.9415 1.73776ZM53.4362 1.2C55.2307 1.2 56.7299 1.38063 57.9384 1.73688L58.0515 1.3532C56.7947 0.982731 55.2548 0.8 53.4362 0.8V1.2ZM48.9341 1.73688C50.1426 1.38063 51.6418 1.2 53.4362 1.2V0.8C51.6177 0.8 50.0778 0.982731 48.821 1.3532L48.9341 1.73688ZM46.0603 3.41141C46.7749 2.63107 47.7285 2.07137 48.931 1.73776L48.8241 1.35232C47.5612 1.70268 46.5383 2.29718 45.7653 3.14126L46.0603 3.41141ZM44.5453 6.56058C44.8585 5.23767 45.3668 4.19087 46.0622 3.40927L45.7633 3.1434C45.0135 3.98623 44.4805 5.09821 44.1561 6.46843L44.5453 6.56058ZM50.7265 16.7176H53.6275V16.3176H50.7265V16.7176ZM50.5265 8.18168V16.5176H50.9265V8.18168H50.5265ZM51.1594 6.69954C50.7171 6.98734 50.5265 7.508 50.5265 8.18168H50.9265C50.9265 7.57292 51.0972 7.21724 51.3775 7.03481L51.1594 6.69954ZM53.2131 6.28244C52.2738 6.28244 51.569 6.40852 51.1527 6.70409L51.3842 7.03026C51.6905 6.81285 52.2822 6.68244 53.2131 6.68244V6.28244ZM56.146 6.28244H53.2131V6.68244H56.146V6.28244ZM56.346 14.8183V6.48244H55.946V14.8183H56.346ZM55.7198 16.328C56.1548 16.0191 56.346 15.4936 56.346 14.8183H55.946C55.946 15.4255 55.7758 15.7977 55.4883 16.0018L55.7198 16.328ZM53.6275 16.7176C54.1129 16.7176 54.5293 16.6878 54.8741 16.6263C55.2168 16.5651 55.5011 16.4705 55.7131 16.3325L55.4949 15.9973C55.3457 16.0944 55.1199 16.1761 54.8038 16.2325C54.4897 16.2885 54.0985 16.3176 53.6275 16.3176V16.7176ZM7.57583 21.5191V16.6779H7.17583V21.5191H7.57583ZM1 21.7191H7.37583V21.3191H1V21.7191ZM0.8 1.48092V21.5191H1.2V1.48092H0.8ZM10.0856 1.28092H1V1.68092H10.0856V1.28092ZM14.5678 2.06837C13.4062 1.53939 11.9086 1.28092 10.0856 1.28092V1.68092C11.8755 1.68092 13.3107 1.93543 14.402 2.4324L14.5678 2.06837ZM17.1207 4.53814C16.5896 3.40299 15.7348 2.57768 14.5649 2.06708L14.4049 2.43369C15.4877 2.90629 16.2695 3.66266 16.7584 4.70766L17.1207 4.53814ZM17.9366 8.88702C17.9366 7.11652 17.6686 5.66203 17.1194 4.53527L16.7598 4.71053C17.2732 5.76392 17.5366 7.15218 17.5366 8.88702H17.9366ZM16.131 14.921C17.3474 13.5865 17.9366 11.5618 17.9366 8.88702H17.5366C17.5366 11.513 16.9568 13.4212 15.8354 14.6515L16.131 14.921ZM10.5638 16.8779C13.0395 16.8779 14.9095 16.2389 16.1299 14.9222L15.8365 14.6503C14.7192 15.8558 12.9761 16.4779 10.5638 16.4779V16.8779ZM7.37583 16.8779H10.5638V16.4779H7.37583V16.8779ZM9.79865 11.829H7.37583V12.229H9.79865V11.829ZM10.6052 11.608C10.4947 11.733 10.2525 11.829 9.79865 11.829V12.229C10.28 12.229 10.6753 12.1326 10.9049 11.8729L10.6052 11.608ZM10.8419 10.6824C10.8419 11.1845 10.7455 11.4664 10.6132 11.5994L10.8968 11.8815C11.1471 11.6298 11.2419 11.2063 11.2419 10.6824H10.8419ZM10.8419 8.11756V10.6824H11.2419V8.11756H10.8419ZM10.6132 7.20056C10.7455 7.33361 10.8419 7.61546 10.8419 8.11756H11.2419C11.2419 7.5937 11.1471 7.1702 10.8968 6.91852L10.6132 7.20056ZM9.79865 6.97099C10.2525 6.97099 10.4947 7.06696 10.6052 7.19199L10.9049 6.92709C10.6753 6.66739 10.28 6.57099 9.79865 6.57099V6.97099ZM7.37583 6.97099H9.79865V6.57099H7.37583V6.97099ZM7.57583 12.029V6.77099H7.17583V12.029H7.57583ZM28.7705 21.5191V15.716H28.3705V21.5191H28.7705ZM22.1947 21.7191H28.5705V21.3191H22.1947V21.7191ZM21.9947 1.48092V21.5191H22.3947V1.48092H21.9947ZM31.4396 1.28092H22.1947V1.68092H31.4396V1.28092ZM35.9218 2.06837C34.7603 1.53939 33.2626 1.28092 31.4396 1.28092V1.68092C33.2296 1.68092 34.6648 1.93543 35.7561 2.4324L35.9218 2.06837ZM38.4748 4.53814C37.9436 3.40299 37.0889 2.57768 35.9189 2.06708L35.7589 2.43369C36.8418 2.90629 37.6235 3.66266 38.1125 4.70766L38.4748 4.53814ZM39.2906 8.88702C39.2906 7.11652 39.0226 5.66203 38.4734 4.53527L38.1139 4.71053C38.6273 5.76392 38.8906 7.15218 38.8906 8.88702H39.2906ZM37.4751 14.1938C38.6986 13.0304 39.2906 11.247 39.2906 8.88702H38.8906C38.8906 11.1866 38.3138 12.8444 37.1995 13.9039L37.4751 14.1938ZM36.7428 14.7756C37.0101 14.6015 37.2548 14.4071 37.4764 14.1925L37.1981 13.9052C36.9956 14.1013 36.7712 14.2797 36.5245 14.4404L36.7428 14.7756ZM40.0685 21.4339L36.8146 14.5228L36.4527 14.6932L39.7067 21.6043L40.0685 21.4339ZM32.9698 21.7191H39.8876V21.3191H32.9698V21.7191ZM30.0749 15.8008L32.7887 21.6038L33.151 21.4344L30.4372 15.6313L30.0749 15.8008ZM28.5705 15.916H30.256V15.516H28.5705V15.916ZM31.1527 10.8672H28.5705V11.2672H31.1527V10.8672ZM31.9592 10.6462C31.8487 10.7712 31.6065 10.8672 31.1527 10.8672V11.2672C31.634 11.2672 32.0294 11.1708 32.2589 10.9111L31.9592 10.6462ZM32.196 9.72061C32.196 10.2227 32.0996 10.5046 31.9673 10.6376L32.2509 10.9196C32.5012 10.668 32.596 10.2445 32.596 9.72061H32.196ZM32.196 8.11756V9.72061H32.596V8.11756H32.196ZM31.9673 7.20056C32.0996 7.33361 32.196 7.61546 32.196 8.11756H32.596C32.596 7.5937 32.5012 7.17021 32.2509 6.91852L31.9673 7.20056ZM31.1527 6.97099C31.6065 6.97099 31.8487 7.06696 31.9592 7.19199L32.2589 6.92709C32.0294 6.66739 31.634 6.57099 31.1527 6.57099V6.97099ZM28.5705 6.97099H31.1527V6.57099H28.5705V6.97099ZM28.7705 11.0672V6.77099H28.3705V11.0672H28.7705ZM7.27771 23.8H1V24.2H7.27771V23.8ZM9.14001 38.5261L7.47642 23.9773L7.07901 24.0227L8.7426 38.5715L9.14001 38.5261ZM9.2238 38.3488H8.94131V38.7488H9.2238V38.3488ZM11.1918 23.9706L9.02598 38.5194L9.42162 38.5783L11.5874 24.0294L11.1918 23.9706ZM13.5868 23.8H11.3896V24.2H13.5868V23.8ZM16.0037 23.8H13.5868V24.2H16.0037V23.8ZM18.2009 23.8H16.0037V24.2H18.2009V23.8ZM20.5646 38.5194L18.3987 23.9706L18.0031 24.0294L20.1689 38.5783L20.5646 38.5194ZM20.6492 38.3488H20.3667V38.7488H20.6492V38.3488ZM22.1141 23.9773L20.4505 38.5261L20.8479 38.5715L22.5115 24.0227L22.1141 23.9773ZM28.5905 23.8H22.3128V24.2H28.5905V23.8ZM26.1838 45.0246L28.789 24.0246L28.3921 23.9754L25.7868 44.9754L26.1838 45.0246ZM16.6315 45.2H25.9853V44.8H16.6315V45.2ZM14.5973 32.3637L16.4336 45.0287L16.8294 44.9713L14.9932 32.3064L14.5973 32.3637ZM13.157 45.0287L14.9932 32.3637L14.5973 32.3064L12.7611 44.9713L13.157 45.0287ZM3.60525 45.2H12.959V44.8H3.60525V45.2ZM0.801522 24.0246L3.40677 45.0246L3.80373 44.9754L1.19848 23.9754L0.801522 24.0246ZM37.0994 39.456V36.936H36.6994V39.456H37.0994ZM44.2757 39.256H36.8994V39.656H44.2757V39.256ZM44.4757 45V39.456H44.0757V45H44.4757ZM30.6217 45.2H44.2757V44.8H30.6217V45.2ZM30.4217 24V45H30.8217V24H30.4217ZM44.4327 23.8H30.6217V24.2H44.4327V23.8ZM43.846 29.572L44.6307 24.028L44.2347 23.972L43.4499 29.516L43.846 29.572ZM36.8994 29.744H43.648V29.344H36.8994V29.744ZM37.0994 32.064V29.544H36.6994V32.064H37.0994ZM43.1771 31.864H36.8994V32.264H43.1771V31.864ZM43.3771 36.936V32.064H42.9771V36.936H43.3771ZM36.8994 37.136H43.1771V36.736H36.8994V37.136ZM46.6152 24.2H55.5295V23.8H46.6152V24.2ZM46.8152 45V24H46.4152V45H46.8152ZM56.6281 44.8H46.6152V45.2H56.6281V44.8ZM61.2005 43.3413C60.1615 44.3038 58.6479 44.8 56.6281 44.8V45.2C58.7098 45.2 60.3351 44.6882 61.4723 43.6347L61.2005 43.3413ZM62.8 39.0864C62.8 40.9501 62.2586 42.3582 61.2003 43.3415L61.4725 43.6345C62.6323 42.557 63.2 41.0307 63.2 39.0864H62.8ZM61.9255 36.2437C62.5083 37.0827 62.8 38.0282 62.8 39.0864H63.2C63.2 37.9494 62.8849 36.9237 62.254 36.0155L61.9255 36.2437ZM59.7814 34.6437C60.6255 34.8538 61.34 35.3793 61.9241 36.2418L62.2553 36.0174C61.6257 35.0879 60.8336 34.4934 59.8781 34.2555L59.7814 34.6437ZM59.6297 34.248V34.4496H60.0298V34.248H59.6297ZM61.2485 32.25C60.8638 33.0952 60.3544 33.6986 59.7266 34.0767L59.9329 34.4193C60.6444 33.991 61.2021 33.3176 61.6126 32.4156L61.2485 32.25ZM61.827 29.544C61.827 30.5018 61.634 31.4031 61.2485 32.25L61.6126 32.4156C62.0224 31.5153 62.227 30.5574 62.227 29.544H61.827ZM60.3592 25.4626C61.3229 26.2837 61.827 27.6269 61.827 29.544H62.227C62.227 27.5635 61.7057 26.0843 60.6186 25.1582L60.3592 25.4626ZM55.5295 24.2C57.8152 24.2 59.4081 24.6355 60.3577 25.4613L60.6202 25.1595C59.5608 24.2381 57.8475 23.8 55.5295 23.8V24.2ZM55.1529 39.928H52.8929V40.328H55.1529V39.928ZM56.0612 39.6369C55.9304 39.808 55.6557 39.928 55.1529 39.928V40.328C55.6963 40.328 56.133 40.2016 56.379 39.8799L56.0612 39.6369ZM56.334 38.4144C56.334 39.0298 56.2292 39.421 56.0623 39.6355L56.3779 39.8813C56.6294 39.5582 56.734 39.0534 56.734 38.4144H56.334ZM56.0926 37.1919C56.2375 37.3815 56.334 37.7693 56.334 38.4144H56.734C56.734 37.7603 56.6421 37.2521 56.4104 36.9489L56.0926 37.1919ZM55.1842 36.9008C55.6871 36.9008 55.9618 37.0208 56.0926 37.1919L56.4104 36.9489C56.1644 36.6272 55.7277 36.5008 55.1842 36.5008V36.9008ZM52.8929 36.9008H55.1842V36.5008H52.8929V36.9008ZM53.0929 40.128V36.7008H52.6929V40.128H53.0929ZM54.4309 31.7968H52.8929V32.1968H54.4309V31.7968ZM55.3129 31.5666C55.2077 31.6933 54.9475 31.7968 54.4309 31.7968V32.1968C54.9606 32.1968 55.391 32.0987 55.6206 31.8222L55.3129 31.5666ZM55.5492 30.4176C55.5492 30.7224 55.5262 30.9701 55.4833 31.164C55.4401 31.3595 55.3794 31.4875 55.3137 31.5657L55.6198 31.8231C55.7424 31.6773 55.823 31.4805 55.8739 31.2504C55.9252 31.0187 55.9492 30.74 55.9492 30.4176H55.5492ZM55.3443 29.3022C55.3977 29.3665 55.4515 29.4834 55.4904 29.676C55.5287 29.8655 55.5492 30.1116 55.5492 30.4176H55.9492C55.9492 30.0964 55.9279 29.8217 55.8825 29.5968C55.8377 29.375 55.766 29.1839 55.652 29.0466L55.3443 29.3022ZM54.4309 29.072C54.6923 29.072 54.8973 29.0964 55.0513 29.14C55.2056 29.1838 55.295 29.2428 55.3443 29.3022L55.652 29.0466C55.5339 28.9044 55.3617 28.8122 55.1603 28.7552C54.9585 28.698 54.7136 28.672 54.4309 28.672V29.072ZM52.8929 29.072H54.4309V28.672H52.8929V29.072ZM53.0929 31.9968V28.872H52.6929V31.9968H53.0929Z" fill="white" mask="url(#path-1-outside-1_950_31)"/>
<defs>
<linearGradient id="paint0_linear_950_31" x1="1" y1="2" x2="79" y2="53" gradientUnits="userSpaceOnUse">
<stop stop-color="#151315"/>
<stop offset="1" stop-color="#303F98"/>
</linearGradient>
</defs>
</svg>
